<svg xmlns="http://www.w3.org/2000/svg" viewBox="0 0 217.82 338.42"><defs><style>.cls-1{fill:#c6d1dd;}.cls-2{fill:#091c30;}</style></defs><g id="Layer_2" data-name="Layer 2"><g id="Layer_23" data-name="Layer 23"><rect class="cls-1" width="217.82" height="338.42" rx="64.4"/><path class="cls-2" d="M165,117.1a5,5,0,0,0-5.38.85L108.91,163.5,58.17,118a5,5,0,0,0-8.34,3.72v97.09a5,5,0,0,0,8.34,3.72l50.74-45.54,50.73,45.54a5,5,0,0,0,8.34-3.72V121.67A5,5,0,0,0,165,117.1ZM59.83,207.55V132.88l41.59,37.34Zm98.15,0-41.59-37.33L158,132.88Z"/></g></g></svg>