<svg xmlns="http://www.w3.org/2000/svg" viewBox="0 0 217.82 338.42"><defs><style>.cls-1{fill:#c6d1dd;}.cls-2{fill:#091c30;}</style></defs><g id="Layer_2" data-name="Layer 2"><g id="Layer_10" data-name="Layer 10"><rect class="cls-1" width="217.82" height="338.42" rx="64.4"/><path class="cls-2" d="M159.25,148.54a5,5,0,0,1-7.07,0l-38.27-38.27v133.5a5,5,0,0,1-3.09,4.62,4.93,4.93,0,0,1-1.91.38,5,5,0,0,1-3.54-1.46L58.56,200.5a5,5,0,0,1,7.07-7.07l38.28,38.27V98.19a5,5,0,0,1,8.53-3.53l46.81,46.81A5,5,0,0,1,159.25,148.54Z"/></g></g></svg>