<svg xmlns="http://www.w3.org/2000/svg" viewBox="0 0 217.82 338.42"><defs><style>.cls-1{fill:#c6d1dd;}.cls-2{fill:#091c30;}</style></defs><g id="Layer_2" data-name="Layer 2"><g id="Layer_9" data-name="Layer 9"><rect class="cls-1" width="217.82" height="338.42" rx="64.4"/><path class="cls-2" d="M147.61,168,115.1,123.62l23.54-32.17a5,5,0,0,0-8.07-5.9l-21.66,29.6L87.24,85.55a5,5,0,0,0-8.07,5.9l23.54,32.17L70.21,168a5,5,0,0,0,0,5.91l32.5,44.41L79.17,250.51a5,5,0,0,0,8.07,5.91l21.67-29.61,21.66,29.61a5,5,0,0,0,8.07-5.91L115.1,218.35l32.51-44.41A5,5,0,0,0,147.61,168Zm-38.7,41.85L80.44,171l28.47-38.9L137.38,171Z"/></g></g></svg>