<svg xmlns="http://www.w3.org/2000/svg" viewBox="0 0 217.82 338.42"><defs><style>.cls-1{fill:#c6d1dd;}.cls-2{fill:#091c30;}</style></defs><g id="Layer_2" data-name="Layer 2"><g id="Layer_17" data-name="Layer 17"><rect class="cls-1" width="217.82" height="338.42" rx="64.4"/><path class="cls-2" d="M146.59,204.53,84.14,170.87l62.45-33.66a5,5,0,0,0,0-8.81L76,90.34a5,5,0,0,0-7.37,4.4V247A5,5,0,0,0,71,251.29a4.93,4.93,0,0,0,2.57.71,5,5,0,0,0,2.37-.6l70.62-38.06a5,5,0,0,0,0-8.81Zm-68-101.41,55.08,29.69L78.6,162.5Zm0,135.51V179.25l55.08,29.69Z"/></g></g></svg>