<svg xmlns="http://www.w3.org/2000/svg" viewBox="0 0 217.82 338.42"><defs><style>.cls-1{fill:#c6d1dd;}.cls-2{fill:#091c30;}</style></defs><g id="Layer_2" data-name="Layer 2"><g id="Layer_14" data-name="Layer 14"><rect class="cls-1" width="217.82" height="338.42" rx="64.4"/><path class="cls-2" d="M116.26,256.84a5,5,0,0,1-6.61,7.51L57.17,218.14a5,5,0,0,1-1.11-6.1L89.74,148.6a5,5,0,0,1,8.83,4.69l-31.82,60Zm44.22-134.23L104.6,77.48a5,5,0,0,0-6.28,7.78l52.8,42.65L122.7,187.44a5,5,0,1,0,9,4.31l30.12-63.1A5,5,0,0,0,160.48,122.61Z"/></g></g></svg>