<svg xmlns="http://www.w3.org/2000/svg" viewBox="0 0 217.82 338.42"><defs><style>.cls-1{fill:#c6d1dd;}.cls-2{fill:#091c30;}</style></defs><g id="Layer_2" data-name="Layer 2"><g id="Layer_7" data-name="Layer 7"><rect class="cls-1" width="217.82" height="338.42" rx="64.4"/><path class="cls-2" d="M151.09,238.46a5,5,0,0,1-7,1.18l-35.21-25-35.21,25a5,5,0,0,1-7.9-4.08V106.4a5,5,0,0,1,7.9-4.07l35.21,25,35.21-25a5,5,0,1,1,5.79,8.15L111.8,137.57a5,5,0,0,1-5.79,0L75.8,116.09V225.87L106,204.39a5,5,0,0,1,5.79,0l38.11,27.1A5,5,0,0,1,151.09,238.46Z"/></g></g></svg>