<svg xmlns="http://www.w3.org/2000/svg" viewBox="0 0 217.82 338.42"><defs><style>.cls-1{fill:#c6d1dd;}.cls-2{fill:#091c30;}</style></defs><g id="Layer_2" data-name="Layer 2"><g id="Layer_3" data-name="Layer 3"><rect class="cls-1" width="217.82" height="338.42" rx="64.4"/><path class="cls-2" d="M150.49,248.17a5,5,0,0,1-6.79-2l-34.18-62.15L83.81,242.63a5,5,0,0,1-4.58,3,5,5,0,0,1-4.58-7L103.45,173l-38.1-69.26a5,5,0,1,1,8.76-4.82l34.4,62.54,28.66-65.31a5,5,0,0,1,9.16,4l-31.75,72.33,37.88,68.87A5,5,0,0,1,150.49,248.17Z"/></g></g></svg>