<svg xmlns="http://www.w3.org/2000/svg" viewBox="0 0 217.82 338.42"><defs><style>.cls-1{fill:#c6d1dd;}.cls-2{fill:#091c30;}</style></defs><g id="Layer_2" data-name="Layer 2"><g id="Layer_5" data-name="Layer 5"><rect class="cls-1" width="217.82" height="338.42" rx="64.4"/><path class="cls-2" d="M157.65,140.57,112.44,95.36a5,5,0,0,0-7.07,0l-45.2,45.21a5,5,0,0,0-.24,6.81L102.28,196,64.21,239.78a5,5,0,0,0,7.55,6.57l37.15-42.69,37.15,42.69a5,5,0,1,0,7.54-6.57L115.54,196l42.34-48.66A5,5,0,0,0,157.65,140.57Zm-48.74,47.86L70.54,144.34,108.91,106l38.37,38.37Z"/></g></g></svg>