<svg xmlns="http://www.w3.org/2000/svg" viewBox="0 0 217.82 338.42"><defs><style>.cls-1{fill:#c6d1dd;}.cls-2{fill:#091c30;}</style></defs><g id="Layer_2" data-name="Layer 2"><g id="Layer_2-2" data-name="Layer 2"><rect class="cls-1" width="217.82" height="338.42" rx="64.4"/><path class="cls-2" d="M152.88,103.61a5,5,0,0,0-5.45,1.08l-38.52,38.52L70.39,104.69a5,5,0,0,0-8.54,3.54v122a5,5,0,0,0,10,0V194.41l37.06-37,37.06,37v35.78a5,5,0,0,0,10,0v-122A5,5,0,0,0,152.88,103.61Zm-81,76.66v-60l30,30Zm74.12,0-30-30,30-30Z"/></g></g></svg>