<svg xmlns="http://www.w3.org/2000/svg" viewBox="0 0 217.82 338.42"><defs><style>.cls-1{fill:#c6d1dd;}.cls-2{fill:#091c30;}</style></defs><g id="Layer_2" data-name="Layer 2"><g id="Layer_16" data-name="Layer 16"><rect class="cls-1" width="217.82" height="338.42" rx="64.4"/><path class="cls-2" d="M165.62,155a5,5,0,0,1-7-.63l-40.64-48.68V250.09a5,5,0,0,1-10,0V102.69l-49.3,41.9A5,5,0,0,1,52.16,137l57.54-48.9c.06-.06.14-.1.21-.16s.28-.2.43-.29.27-.15.41-.22l.46-.2a3.5,3.5,0,0,1,.46-.14l.48-.11.51,0c.09,0,.18,0,.28,0a1.38,1.38,0,0,1,.2,0h.22c.1,0,.19,0,.29.06a4.37,4.37,0,0,1,.5.09l.44.14.48.19a3.11,3.11,0,0,1,.4.22,2.87,2.87,0,0,1,.43.28l.35.29a4.17,4.17,0,0,1,.37.36,1.06,1.06,0,0,1,.15.15l49.48,59.26A5,5,0,0,1,165.62,155Z"/></g></g></svg>